<svg xmlns="http://www.w3.org/2000/svg" xmlns:xlink="http://www.w3.org/1999/xlink" width="333" height="399" viewBox="0 0 333 399"><defs><style>.a{fill:#fff;}.b{font-size:17px;font-family:Helvetica-Bold, Helvetica;font-weight:700;}.c,.d{font-size:14px;}.c,.d,.i{font-family:Helvetica-Light, Helvetica;font-weight:300;}.c{opacity:0.503;}.d{opacity:0.999;}.e,.f,.g,.k{fill:none;}.e{stroke:#414141;stroke-width:0.5px;}.f{stroke:#e0e0e0;}.f,.g{stroke-linecap:round;}.g{stroke:#74b35a;stroke-dasharray:200 90;}.h{font-size:12px;font-family:Helvetica;}.i{font-size:25px;}.j{stroke:none;}.l{filter:url(#c);}.m{filter:url(#a);}</style><filter id="a" x="0" y="0" width="333" height="399" filterUnits="userSpaceOnUse"><feOffset input="SourceAlpha"/><feGaussianBlur stdDeviation="20" result="b"/><feFlood flood-color="#0b0b0b" flood-opacity="0.141"/><feComposite operator="in" in2="b"/><feComposite in="SourceGraphic"/></filter><filter id="c" x="90.221" y="162.84" width="21.394" height="21.394" filterUnits="userSpaceOnUse"><feOffset input="SourceAlpha"/><feGaussianBlur stdDeviation="2.5" result="d"/><feFlood flood-color="#fff"/><feComposite operator="in" in2="d"/><feComposite in="SourceGraphic"/></filter></defs><g transform="translate(-1342 -414.5)"><g class="m" transform="matrix(1, 0, 0, 1, 1342, 414.5)"><rect class="a" width="213" height="279" rx="7" transform="translate(60 60)"/></g><text class="b" transform="translate(1510 512.5)"><tspan x="-60.94" y="0">Vacation Home</tspan></text><text class="c" transform="translate(1603 737.5)"><tspan x="-62.272" y="0">£ 150,000</tspan></text><text class="d" transform="translate(1415 737.5)"><tspan x="0" y="0">£ 101,342</tspan></text><line class="e" x2="213.142" transform="translate(1402.851 711.088)"/><g class="f" transform="translate(1439 680.5) rotate(-90)"><circle class="j" cx="70.5" cy="70.5" r="70.5"/><circle class="k" cx="70.5" cy="70.5" r="70"/></g><g class="g" transform="translate(1606.72 589.519) rotate(123)"><circle class="j" cx="70.337" cy="70.337" r="70.337"/><circle class="k" cx="70.337" cy="70.337" r="69.837"/></g><g class="l" transform="matrix(1, 0, 0, 1, 1342, 414.5)"><circle cx="3.197" cy="3.197" r="3.197" transform="translate(97.72 170.34)"/></g><text class="h" transform="translate(1485 631.5)"><tspan x="0" y="0">On Track</tspan></text><text class="i" transform="translate(1509 610.5)"><tspan x="-25.012" y="0">78%</tspan></text></g></svg>