<svg xmlns="http://www.w3.org/2000/svg" xmlns:xlink="http://www.w3.org/1999/xlink" width="749.363" height="338.965" viewBox="0 0 749.363 338.965"><defs><style>.a{font-size:17px;font-family:Helvetica-Bold, Helvetica;font-weight:700;}.b,.c{fill:#7c828a;font-family:NunitoSans-Regular, Nunito Sans;}.b,.k,.m{font-size:11px;}.c{font-size:10px;}.d{fill:none;stroke:#707070;stroke-dasharray:1 1;opacity:0.446;}.e{fill:url(#a);}.f{opacity:0.558;fill:url(#b);}.g,.i{fill:rgba(0,0,0,0);}.g{stroke:#547edb;}.h{fill:#4f6481;}.i{stroke:#f489a6;}.j{fill:#f489a6;}.k{fill:#6f6f6f;}.k,.m{font-family:Helvetica;}.l{fill:#edf2f7;}.m{fill:#696969;}</style><linearGradient id="a" x1="0.5" x2="0.5" y2="1" gradientUnits="objectBoundingBox"><stop offset="0" stop-color="#edf2f7"/><stop offset="1" stop-color="#edf2f7" stop-opacity="0"/></linearGradient><linearGradient id="b" x1="0.5" x2="0.5" y2="1" gradientUnits="objectBoundingBox"><stop offset="0" stop-color="#ffcece"/><stop offset="1" stop-color="#ffc4c4" stop-opacity="0"/></linearGradient></defs><g transform="translate(-377.839 -424)"><text class="a" transform="translate(384 437)"><tspan x="0" y="0">My Performance</tspan></text><g transform="translate(377.839 472.08)"><g transform="translate(0)"><g transform="translate(0.591 275.885)"><text class="b" transform="translate(664.772)"><tspan x="32.89" y="11">JUL</tspan></text><text class="b" transform="translate(551.25)"><tspan x="31.795" y="11">JUN</tspan></text><text class="b" transform="translate(440.878)"><tspan x="30.134" y="11">MAY</tspan></text><text class="b" transform="translate(335.528)"><tspan x="30.316" y="11">APR</tspan></text><text class="b" transform="translate(226.006)"><tspan x="24.777" y="11">MAR</tspan></text><text class="b" transform="translate(111.062)"><tspan x="31.663" y="11">FEB</tspan></text><text class="b"><tspan x="31.779" y="11">JAN</tspan></text></g><text class="c" transform="translate(0 254.129)"><tspan x="11.759" y="10">0</tspan></text><text class="c" transform="translate(0 169.355)"><tspan x="5.759" y="10">25</tspan></text><text class="c" transform="translate(0 84.582)"><tspan x="5.759" y="10">50</tspan></text><text class="c"><tspan x="5.759" y="10">75</tspan></text><line class="d" y1="261.43" transform="translate(46.132 8.42)"/><line class="d" y1="261.43" transform="translate(153.472 8.42)"/><line class="d" y1="261.43" transform="translate(263.808 8.42)"/><line class="d" y1="261.43" transform="translate(374.144 8.42)"/><line class="d" y1="261.43" transform="translate(483.545 8.42)"/><line class="d" y1="261.43" transform="translate(593.881 8.42)"/><line class="d" y1="261.43" transform="translate(701.132 8.42)"/><line class="d" x2="654.538" transform="translate(46.508 175.888)"/><line class="d" x2="654.538" transform="translate(46.508 89.925)"/><line class="d" x2="654.538" transform="translate(46.508 8.42)"/><line class="d" x2="654.538" transform="translate(46.508 269.85)"/></g><path class="e" d="M4026.5,2743.453v-89.744s45.344-101.35,79.289-97.994c44.913,0,70.578,100.2,105.3,99.094,41.563-1.317,79.018-149.24,110.26-147.178,27.984,4.657,42.415,93,72.664,95.151,33.322-2.226,58.831-106.654,125.029-114.64,50.875.344,67.347,62.77,107.469,60.787,38.784.689,52.529-54.394,52.529-54.394l-.2,248.918Z" transform="translate(-3979.223 -2474.239)"/><path class="f" d="M4026.5,2632.138v-50.616s45.344-57.162,79.289-55.269c44.913,0,70.578,56.512,105.3,55.89,41.563-.743,79.018-84.172,110.26-83.009,27.984,2.627,42.415,52.455,72.664,53.666,33.322-1.255,58.831-60.153,125.029-64.657,50.875.194,67.347,35.4,107.469,34.284,38.784.389,52.529-30.679,52.529-30.679l-.2,140.391Z" transform="translate(-3979.223 -2435.758)"/><g transform="translate(46.745 13.879)"><g transform="translate(0)"><path class="g" d="M0,218.723c19.971-37.582,39.941-75.163,59.912-89.778s39.941-6.263,59.912,18.511,39.941,65.971,59.912,71.267,39.941-25.306,59.912-64.788,39.941-87.843,59.912-78.672,39.941,75.876,59.912,89.778,39.941-25,59.912-53.682,39.941-47.153,59.912-53.682,39.941-1.117,59.912,17.585,35.419,40.262,59.912,39.8,38.639-12.694,53.9-52.471" transform="translate(0 -55.028)"/></g><ellipse class="h" cx="3.017" cy="2.969" rx="3.017" ry="2.969" transform="translate(649.998 5.284)"/></g><g transform="translate(46.745 52.384)"><g transform="translate(0)"><path class="i" d="M0,154.123c19.971-22.751,39.941-45.5,59.912-54.348s39.941-3.791,59.912,11.206,39.941,39.936,59.912,43.142,39.941-15.32,59.912-39.22,39.941-53.177,59.912-47.625,39.941,45.932,59.912,54.348,39.941-15.133,59.912-32.5,39.941-28.545,59.912-32.5,39.941-.676,59.912,10.646,35.419,24.373,59.912,24.093,38.639-7.684,53.9-31.764" transform="translate(0 -55.028)"/></g><ellipse class="j" cx="3.017" cy="2.868" rx="3.017" ry="2.868" transform="translate(649.998 1.324)"/></g></g><g transform="translate(719.323 424)"><text class="k" transform="translate(0 15.806)"><tspan x="0" y="0">Weekly</tspan></text><text class="k" transform="translate(218 15.806)"><tspan x="0" y="0">Yearly</tspan></text><text class="k" transform="translate(318 15.806)"><tspan x="0" y="0">All time</tspan></text><rect class="l" width="81" height="25.369" rx="12.685" transform="translate(86)"/><text class="m" transform="translate(106 15.806)"><tspan x="0" y="0">Monthly</tspan></text></g></g></svg>